<svg aria-labelledby="chart-title-graph-div" aria-roledescription="gantt" role="graphics-document document" style="overflow: hidden; max-width: 100%;" xmlns="http://www.w3.org/2000/svg" width="18000px" id="graph-div" height="12419px" xmlns:xlink="http://www.w3.org/1999/xlink" xmlns:ev="http://www.w3.org/2001/xml-events"><style>@import url("https://cdnjs.cloudflare.com/ajax/libs/font-awesome/6.4.0/css/all.min.css");'</style><g id="viewport-20230807114735831" class="svg-pan-zoom_viewport" transform="matrix(0.48854638294157654,0,0,0.48854638294157654,236.45121278685113,214.4449829892744)" style="transform: matrix(0.488546, 0, 0, 0.488546, 236.451, 214.445);"><title id="chart-title-graph-div">Diagramme de Gantt</title><style>#graph-div{font-family:"trebuchet ms",verdana,arial,sans-serif;font-size:16px;fill:#000000;}#graph-div .error-icon{fill:#552222;}#graph-div .error-text{fill:#552222;stroke:#552222;}#graph-div .edge-thickness-normal{stroke-width:2px;}#graph-div .edge-thickness-thick{stroke-width:3.5px;}#graph-div .edge-pattern-solid{stroke-dasharray:0;}#graph-div .edge-pattern-dashed{stroke-dasharray:3;}#graph-div .edge-pattern-dotted{stroke-dasharray:2;}#graph-div .marker{fill:#000000;stroke:#000000;}#graph-div .marker.cross{stroke:#000000;}#graph-div svg{font-family:"trebuchet ms",verdana,arial,sans-serif;font-size:16px;}#graph-div .mermaid-main-font{font-family:"trebuchet ms",verdana,arial,sans-serif;font-family:var(--mermaid-font-family);}#graph-div .exclude-range{fill:#eeeeee;}#graph-div .section{stroke:none;opacity:0.2;}#graph-div .section0{fill:#6eaa49;}#graph-div .section2{fill:#6eaa49;}#graph-div .section1,#graph-div .section3{fill:white;opacity:0.2;}#graph-div .sectionTitle0{fill:#333;}#graph-div .sectionTitle1{fill:#333;}#graph-div .sectionTitle2{fill:#333;}#graph-div .sectionTitle3{fill:#333;}#graph-div .sectionTitle{text-anchor:start;font-family:'trebuchet ms',verdana,arial,sans-serif;font-family:var(--mermaid-font-family);}#graph-div .grid .tick{stroke:lightgrey;opacity:0.8;shape-rendering:crispEdges;}#graph-div .grid .tick text{font-family:"trebuchet ms",verdana,arial,sans-serif;fill:#000000;}#graph-div .grid path{stroke-width:0;}#graph-div .today{fill:none;stroke:red;stroke-width:2px;}#graph-div .task{stroke-width:2;}#graph-div .taskText{text-anchor:middle;font-family:'trebuchet ms',verdana,arial,sans-serif;font-family:var(--mermaid-font-family);}#graph-div .taskTextOutsideRight{fill:black;text-anchor:start;font-family:'trebuchet ms',verdana,arial,sans-serif;font-family:var(--mermaid-font-family);}#graph-div .taskTextOutsideLeft{fill:black;text-anchor:end;}#graph-div .task.clickable{cursor:pointer;}#graph-div .taskText.clickable{cursor:pointer;fill:#003163!important;font-weight:bold;}#graph-div .taskTextOutsideLeft.clickable{cursor:pointer;fill:#003163!important;font-weight:bold;}#graph-div .taskTextOutsideRight.clickable{cursor:pointer;fill:#003163!important;font-weight:bold;}#graph-div .taskText0,#graph-div .taskText1,#graph-div .taskText2,#graph-div .taskText3{fill:white;}#graph-div .task0,#graph-div .task1,#graph-div .task2,#graph-div .task3{fill:#487e3a;stroke:#13540c;}#graph-div .taskTextOutside0,#graph-div .taskTextOutside2{fill:black;}#graph-div .taskTextOutside1,#graph-div .taskTextOutside3{fill:black;}#graph-div .active0,#graph-div .active1,#graph-div .active2,#graph-div .active3{fill:#cde498;stroke:#13540c;}#graph-div .activeText0,#graph-div .activeText1,#graph-div .activeText2,#graph-div .activeText3{fill:black!important;}#graph-div .done0,#graph-div .done1,#graph-div .done2,#graph-div .done3{stroke:grey;fill:lightgrey;stroke-width:2;}#graph-div .doneText0,#graph-div .doneText1,#graph-div .doneText2,#graph-div .doneText3{fill:black!important;}#graph-div .crit0,#graph-div .crit1,#graph-div .crit2,#graph-div .crit3{stroke:#ff8888;fill:red;stroke-width:2;}#graph-div .activeCrit0,#graph-div .activeCrit1,#graph-div .activeCrit2,#graph-div .activeCrit3{stroke:#ff8888;fill:#cde498;stroke-width:2;}#graph-div .doneCrit0,#graph-div .doneCrit1,#graph-div .doneCrit2,#graph-div .doneCrit3{stroke:#ff8888;fill:lightgrey;stroke-width:2;cursor:pointer;shape-rendering:crispEdges;}#graph-div .milestone{transform:rotate(45deg) scale(0.8,0.8);}#graph-div .milestoneText{font-style:italic;}#graph-div .doneCritText0,#graph-div .doneCritText1,#graph-div .doneCritText2,#graph-div .doneCritText3{fill:black!important;}#graph-div .activeCritText0,#graph-div .activeCritText1,#graph-div .activeCritText2,#graph-div .activeCritText3{fill:black!important;}#graph-div .titleText{text-anchor:middle;font-size:18px;fill:#000000;font-family:'trebuchet ms',verdana,arial,sans-serif;font-family:var(--mermaid-font-family);}#graph-div :root{--mermaid-font-family:"trebuchet ms",verdana,arial,sans-serif;}</style><g></g><g></g><g text-anchor="middle" font-family="sans-serif" font-size="10" fill="none" transform="translate(75, 914)" class="grid"><path d="M0.5,-879V0.5H1753.5V-879" stroke="currentColor" class="domain"></path><g transform="translate(0.5,0)" opacity="1" class="tick"><line y2="-879" stroke="currentColor"></line><text style="text-anchor: middle;" font-size="10" stroke="none" dy="1em" y="3" fill="#000">2023-07-08</text></g><g transform="translate(50.5,0)" opacity="1" class="tick"><line y2="-879" stroke="currentColor"></line><text style="text-anchor: middle;" font-size="10" stroke="none" dy="1em" y="3" fill="#000">2023-08-08</text></g><g transform="translate(100.5,0)" opacity="1" class="tick"><line y2="-879" stroke="currentColor"></line><text style="text-anchor: middle;" font-size="10" stroke="none" dy="1em" y="3" fill="#000">2023-09-08</text></g><g transform="translate(150.5,0)" opacity="1" class="tick"><line y2="-879" stroke="currentColor"></line><text style="text-anchor: middle;" font-size="10" stroke="none" dy="1em" y="3" fill="#000">2023-10-08</text></g><g transform="translate(200.5,0)" opacity="1" class="tick"><line y2="-879" stroke="currentColor"></line><text style="text-anchor: middle;" font-size="10" stroke="none" dy="1em" y="3" fill="#000">2023-11-08</text></g><g transform="translate(250.5,0)" opacity="1" class="tick"><line y2="-879" stroke="currentColor"></line><text style="text-anchor: middle;" font-size="10" stroke="none" dy="1em" y="3" fill="#000">2023-12-08</text></g><g transform="translate(301.5,0)" opacity="1" class="tick"><line y2="-879" stroke="currentColor"></line><text style="text-anchor: middle;" font-size="10" stroke="none" dy="1em" y="3" fill="#000">2023-13-08</text></g><g transform="translate(351.5,0)" opacity="1" class="tick"><line y2="-879" stroke="currentColor"></line><text style="text-anchor: middle;" font-size="10" stroke="none" dy="1em" y="3" fill="#000">2023-14-08</text></g><g transform="translate(401.5,0)" opacity="1" class="tick"><line y2="-879" stroke="currentColor"></line><text style="text-anchor: middle;" font-size="10" stroke="none" dy="1em" y="3" fill="#000">2023-15-08</text></g><g transform="translate(451.5,0)" opacity="1" class="tick"><line y2="-879" stroke="currentColor"></line><text style="text-anchor: middle;" font-size="10" stroke="none" dy="1em" y="3" fill="#000">2023-16-08</text></g><g transform="translate(501.5,0)" opacity="1" class="tick"><line y2="-879" stroke="currentColor"></line><text style="text-anchor: middle;" font-size="10" stroke="none" dy="1em" y="3" fill="#000">2023-17-08</text></g><g transform="translate(551.5,0)" opacity="1" class="tick"><line y2="-879" stroke="currentColor"></line><text style="text-anchor: middle;" font-size="10" stroke="none" dy="1em" y="3" fill="#000">2023-18-08</text></g><g transform="translate(601.5,0)" opacity="1" class="tick"><line y2="-879" stroke="currentColor"></line><text style="text-anchor: middle;" font-size="10" stroke="none" dy="1em" y="3" fill="#000">2023-19-08</text></g><g transform="translate(651.5,0)" opacity="1" class="tick"><line y2="-879" stroke="currentColor"></line><text style="text-anchor: middle;" font-size="10" stroke="none" dy="1em" y="3" fill="#000">2023-20-08</text></g><g transform="translate(701.5,0)" opacity="1" class="tick"><line y2="-879" stroke="currentColor"></line><text style="text-anchor: middle;" font-size="10" stroke="none" dy="1em" y="3" fill="#000">2023-21-08</text></g><g transform="translate(751.5,0)" opacity="1" class="tick"><line y2="-879" stroke="currentColor"></line><text style="text-anchor: middle;" font-size="10" stroke="none" dy="1em" y="3" fill="#000">2023-22-08</text></g><g transform="translate(801.5,0)" opacity="1" class="tick"><line y2="-879" stroke="currentColor"></line><text style="text-anchor: middle;" font-size="10" stroke="none" dy="1em" y="3" fill="#000">2023-23-08</text></g><g transform="translate(851.5,0)" opacity="1" class="tick"><line y2="-879" stroke="currentColor"></line><text style="text-anchor: middle;" font-size="10" stroke="none" dy="1em" y="3" fill="#000">2023-24-08</text></g><g transform="translate(902.5,0)" opacity="1" class="tick"><line y2="-879" stroke="currentColor"></line><text style="text-anchor: middle;" font-size="10" stroke="none" dy="1em" y="3" fill="#000">2023-25-08</text></g><g transform="translate(952.5,0)" opacity="1" class="tick"><line y2="-879" stroke="currentColor"></line><text style="text-anchor: middle;" font-size="10" stroke="none" dy="1em" y="3" fill="#000">2023-26-08</text></g><g transform="translate(1002.5,0)" opacity="1" class="tick"><line y2="-879" stroke="currentColor"></line><text style="text-anchor: middle;" font-size="10" stroke="none" dy="1em" y="3" fill="#000">2023-27-08</text></g><g transform="translate(1052.5,0)" opacity="1" class="tick"><line y2="-879" stroke="currentColor"></line><text style="text-anchor: middle;" font-size="10" stroke="none" dy="1em" y="3" fill="#000">2023-28-08</text></g><g transform="translate(1102.5,0)" opacity="1" class="tick"><line y2="-879" stroke="currentColor"></line><text style="text-anchor: middle;" font-size="10" stroke="none" dy="1em" y="3" fill="#000">2023-29-08</text></g><g transform="translate(1152.5,0)" opacity="1" class="tick"><line y2="-879" stroke="currentColor"></line><text style="text-anchor: middle;" font-size="10" stroke="none" dy="1em" y="3" fill="#000">2023-30-08</text></g><g transform="translate(1202.5,0)" opacity="1" class="tick"><line y2="-879" stroke="currentColor"></line><text style="text-anchor: middle;" font-size="10" stroke="none" dy="1em" y="3" fill="#000">2023-31-08</text></g><g transform="translate(1252.5,0)" opacity="1" class="tick"><line y2="-879" stroke="currentColor"></line><text style="text-anchor: middle;" font-size="10" stroke="none" dy="1em" y="3" fill="#000">2023-01-09</text></g><g transform="translate(1302.5,0)" opacity="1" class="tick"><line y2="-879" stroke="currentColor"></line><text style="text-anchor: middle;" font-size="10" stroke="none" dy="1em" y="3" fill="#000">2023-02-09</text></g><g transform="translate(1352.5,0)" opacity="1" class="tick"><line y2="-879" stroke="currentColor"></line><text style="text-anchor: middle;" font-size="10" stroke="none" dy="1em" y="3" fill="#000">2023-03-09</text></g><g transform="translate(1402.5,0)" opacity="1" class="tick"><line y2="-879" stroke="currentColor"></line><text style="text-anchor: middle;" font-size="10" stroke="none" dy="1em" y="3" fill="#000">2023-04-09</text></g><g transform="translate(1452.5,0)" opacity="1" class="tick"><line y2="-879" stroke="currentColor"></line><text style="text-anchor: middle;" font-size="10" stroke="none" dy="1em" y="3" fill="#000">2023-05-09</text></g><g transform="translate(1503.5,0)" opacity="1" class="tick"><line y2="-879" stroke="currentColor"></line><text style="text-anchor: middle;" font-size="10" stroke="none" dy="1em" y="3" fill="#000">2023-06-09</text></g><g transform="translate(1553.5,0)" opacity="1" class="tick"><line y2="-879" stroke="currentColor"></line><text style="text-anchor: middle;" font-size="10" stroke="none" dy="1em" y="3" fill="#000">2023-07-09</text></g><g transform="translate(1603.5,0)" opacity="1" class="tick"><line y2="-879" stroke="currentColor"></line><text style="text-anchor: middle;" font-size="10" stroke="none" dy="1em" y="3" fill="#000">2023-08-09</text></g><g transform="translate(1653.5,0)" opacity="1" class="tick"><line y2="-879" stroke="currentColor"></line><text style="text-anchor: middle;" font-size="10" stroke="none" dy="1em" y="3" fill="#000">2023-09-09</text></g><g transform="translate(1703.5,0)" opacity="1" class="tick"><line y2="-879" stroke="currentColor"></line><text style="text-anchor: middle;" font-size="10" stroke="none" dy="1em" y="3" fill="#000">2023-10-09</text></g><g transform="translate(1753.5,0)" opacity="1" class="tick"><line y2="-879" stroke="currentColor"></line><text style="text-anchor: middle;" font-size="10" stroke="none" dy="1em" y="3" fill="#000">2023-11-09</text></g></g><g><rect class="section section0" height="24" width="1865.5" y="48" x="0"></rect><rect class="section section0" height="24" width="1865.5" y="72" x="0"></rect><rect class="section section0" height="24" width="1865.5" y="216" x="0"></rect><rect class="section section0" height="24" width="1865.5" y="96" x="0"></rect><rect class="section section0" height="24" width="1865.5" y="120" x="0"></rect><rect class="section section0" height="24" width="1865.5" y="144" x="0"></rect><rect class="section section0" height="24" width="1865.5" y="168" x="0"></rect><rect class="section section0" height="24" width="1865.5" y="192" x="0"></rect><rect class="section section0" height="24" width="1865.5" y="240" x="0"></rect><rect class="section section1" height="24" width="1865.5" y="264" x="0"></rect><rect class="section section1" height="24" width="1865.5" y="288" x="0"></rect><rect class="section section1" height="24" width="1865.5" y="432" x="0"></rect><rect class="section section1" height="24" width="1865.5" y="312" x="0"></rect><rect class="section section1" height="24" width="1865.5" y="336" x="0"></rect><rect class="section section1" height="24" width="1865.5" y="360" x="0"></rect><rect class="section section1" height="24" width="1865.5" y="384" x="0"></rect><rect class="section section1" height="24" width="1865.5" y="408" x="0"></rect><rect class="section section2" height="24" width="1865.5" y="528" x="0"></rect><rect class="section section2" height="24" width="1865.5" y="504" x="0"></rect><rect class="section section2" height="24" width="1865.5" y="552" x="0"></rect><rect class="section section1" height="24" width="1865.5" y="456" x="0"></rect><rect class="section section2" height="24" width="1865.5" y="624" x="0"></rect><rect class="section section2" height="24" width="1865.5" y="576" x="0"></rect><rect class="section section2" height="24" width="1865.5" y="600" x="0"></rect><rect class="section section2" height="24" width="1865.5" y="696" x="0"></rect><rect class="section section3" height="24" width="1865.5" y="744" x="0"></rect><rect class="section section1" height="24" width="1865.5" y="480" x="0"></rect><rect class="section section2" height="24" width="1865.5" y="648" x="0"></rect><rect class="section section3" height="24" width="1865.5" y="768" x="0"></rect><rect class="section section2" height="24" width="1865.5" y="672" x="0"></rect><rect class="section section3" height="24" width="1865.5" y="720" x="0"></rect><rect class="section section3" height="24" width="1865.5" y="792" x="0"></rect><rect class="section section3" height="24" width="1865.5" y="816" x="0"></rect><rect class="section section0" height="24" width="1865.5" y="840" x="0"></rect><rect class="section section0" height="24" width="1865.5" y="864" x="0"></rect><rect class="section section0" height="24" width="1865.5" y="888" x="0"></rect></g><g><rect class="task milestone  crit0" transform-origin="75px 60px" height="20" width="20" y="50" x="65" ry="3" rx="3" id="task1"></rect><rect class="task task0" transform-origin="79px 84px" height="20" width="8" y="74" x="75" ry="3" rx="3" id="a1"></rect><rect class="task task0" transform-origin="200px 228px" height="20" width="250" y="218" x="75" ry="3" rx="3" id="a0"></rect><rect class="task task0" transform-origin="87.5px 108px" height="20" width="9" y="98" x="83" ry="3" rx="3" id="a2"></rect><rect class="task task0" transform-origin="117px 132px" height="20" width="50" y="122" x="92" ry="3" rx="3" id="a3"></rect><rect class="task task0" transform-origin="167px 156px" height="20" width="50" y="146" x="142" ry="3" rx="3" id="a4"></rect><rect class="task task0" transform-origin="217px 180px" height="20" width="50" y="170" x="192" ry="3" rx="3" id="a5"></rect><rect class="task task0" transform-origin="283.5px 204px" height="20" width="83" y="194" x="242" ry="3" rx="3" id="a6"></rect><rect class="task milestone  task0" transform-origin="325px 252px" height="20" width="20" y="242" x="315" ry="3" rx="3" id="task2"></rect><rect class="task milestone  crit1" transform-origin="426px 276px" height="20" width="20" y="266" x="416" ry="3" rx="3" id="task3"></rect><rect class="task task1" transform-origin="451px 300px" height="20" width="50" y="290" x="426" ry="3" rx="3" id="task4"></rect><rect class="task task1" transform-origin="951.5px 444px" height="20" width="1051" y="434" x="426" ry="3" rx="3" id="b0"></rect><rect class="task task1" transform-origin="480px 324px" height="20" width="8" y="314" x="476" ry="3" rx="3" id="b1"></rect><rect class="task task1" transform-origin="505px 348px" height="20" width="42" y="338" x="484" ry="3" rx="3" id="b2"></rect><rect class="task task1" transform-origin="489px 372px" height="20" width="10" y="362" x="484" ry="3" rx="3" id="b3"></rect><rect class="task task1" transform-origin="504px 396px" height="20" width="40" y="386" x="484" ry="3" rx="3" id="b4"></rect><rect class="task task1" transform-origin="574px 420px" height="20" width="100" y="410" x="524" ry="3" rx="3" id="b5"></rect><rect class="task task2" transform-origin="549px 540px" height="20" width="50" y="530" x="524" ry="3" rx="3" id="b8"></rect><rect class="task milestone  task2" transform-origin="526px 516px" height="20" width="20" y="506" x="516" ry="3" rx="3" id="task7"></rect><rect class="task task2" transform-origin="624px 564px" height="20" width="100" y="554" x="574" ry="3" rx="3" id="task8"></rect><rect class="task milestone  task1" transform-origin="576px 468px" height="20" width="20" y="458" x="566" ry="3" rx="3" id="task5"></rect><rect class="task task2" transform-origin="774px 636px" height="20" width="300" y="626" x="624" ry="3" rx="3" id="c2"></rect><rect class="task task2" transform-origin="651px 588px" height="20" width="50" y="578" x="626" ry="3" rx="3" id="task9"></rect><rect class="task crit2" transform-origin="651px 612px" height="20" width="50" y="602" x="626" ry="3" rx="3" id="task10"></rect><rect class="task task2" transform-origin="726px 708px" height="20" width="200" y="698" x="626" ry="3" rx="3" id="task13"></rect><rect class="task task3" transform-origin="651px 756px" height="20" width="50" y="746" x="626" ry="3" rx="3" id="task15"></rect><rect class="task milestone  crit1" transform-origin="676px 492px" height="20" width="20" y="482" x="666" ry="3" rx="3" id="task6"></rect><rect class="task milestone  crit2" transform-origin="676px 660px" height="20" width="20" y="650" x="666" ry="3" rx="3" id="task11"></rect><rect class="task task3" transform-origin="901.5px 780px" height="20" width="251" y="770" x="776" ry="3" rx="3" id="task16"></rect><rect class="task crit2" transform-origin="1177px 684px" height="20" width="100" y="674" x="1127" ry="3" rx="3" id="task12"></rect><rect class="task milestone  task3" transform-origin="1127px 732px" height="20" width="20" y="722" x="1117" ry="3" rx="3" id="task14"></rect><rect class="task milestone  crit3" transform-origin="1127px 804px" height="20" width="20" y="794" x="1117" ry="3" rx="3" id="task17"></rect><rect class="task task3" transform-origin="1252px 828px" height="20" width="250" y="818" x="1127" ry="3" rx="3" id="task18"></rect><rect class="task milestone  task0" transform-origin="1477px 852px" height="20" width="20" y="842" x="1467" ry="3" rx="3" id="task19"></rect><rect class="task task0" transform-origin="1602.5px 876px" height="20" width="251" y="866" x="1477" ry="3" rx="3" id="task20"></rect><rect class="task milestone  crit0" transform-origin="1828px 900px" height="20" width="20" y="890" x="1818" ry="3" rx="3" id="task21"></rect><text class="taskTextOutsideRight taskTextOutside0  critText0 milestoneText width-29.88427734375" y="63.5" x="90" font-size="11" id="task1-text">Début                       </text><text class="taskTextOutsideRight taskTextOutside0  width-62.15625" y="87.5" x="88" font-size="11" id="a1-text">Planification               </text><text class="taskText taskText0  width-172.484375" y="231.5" x="200" font-size="11" id="a0-text">Rédaction du rapport de pré-étude   </text><text class="taskTextOutsideRight taskTextOutside0  width-52.03125" y="111.5" x="97" font-size="11" id="a2-text">Etude CDC                   </text><text class="taskTextOutsideRight taskTextOutside0  width-92.65087890625" y="135.5" x="147" font-size="11" id="a3-text">Etude syst. / Blocs         </text><text class="taskTextOutsideRight taskTextOutside0  width-92.9892578125" y="159.5" x="197" font-size="11" id="a4-text">Choix technologies          </text><text class="taskTextOutsideRight taskTextOutside0  width-88.56884765625" y="183.5" x="247" font-size="11" id="a5-text">Choix composants            </text><text class="taskTextOutsideRight taskTextOutside0  width-88.59375" y="207.5" x="330" font-size="11" id="a6-text">Concept firmware            </text><text class="taskTextOutsideRight taskTextOutside0  milestoneText width-94.96875" y="255.5" x="340" font-size="11" id="task2-text">Fin de la pré-étude         </text><text class="taskTextOutsideRight taskTextOutside1  critText1 milestoneText width-98.82861328125" y="279.5" x="441" font-size="11" id="task3-text">Commencer schéma            </text><text class="taskTextOutsideRight taskTextOutside1  width-84.4814453125" y="303.5" x="481" font-size="11" id="task4-text">Dim. composants             </text><text class="taskText taskText1  width-154.796875" y="447.5" x="951.5" font-size="11" id="b0-text">Rédaction du rapport de design   </text><text class="taskTextOutsideRight taskTextOutside1  width-127.171875" y="327.5" x="489" font-size="11" id="b1-text">Construction schéma bloc    </text><text class="taskTextOutsideRight taskTextOutside1  width-62.5" y="351.5" x="531" font-size="11" id="b2-text">Schéma MCU                  </text><text class="taskTextOutsideRight taskTextOutside1  width-88.390625" y="375.5" x="499" font-size="11" id="b3-text">Schéma puissance            </text><text class="taskTextOutsideRight taskTextOutside1  width-109.19921875" y="399.5" x="529" font-size="11" id="b4-text">Schéma périphèriques        </text><text class="taskTextOutsideRight taskTextOutside1  width-110.88232421875" y="423.5" x="629" font-size="11" id="b5-text">Adaptation du schéma      </text><text class="taskTextOutsideRight taskTextOutside2  width-75.13232421875" y="543.5" x="579" font-size="11" id="b8-text">Placement PCB               </text><text class="taskTextOutsideRight taskTextOutside2  milestoneText width-94.06005859375" y="519.5" x="541" font-size="11" id="task7-text">Commencer le PCB            </text><text class="taskText taskText2  width-62.55859375" y="567.5" x="624" font-size="11" id="task8-text">Routage PCB                 </text><text class="taskTextOutsideRight taskTextOutside1  milestoneText width-75.244140625" y="471.5" x="591" font-size="11" id="task5-text">Finir le schéma             </text><text class="taskText taskText2  width-88.828125" y="639.5" x="774" font-size="11" id="c2-text">Design mécanique            </text><text class="taskTextOutsideRight taskTextOutside2  width-95.775390625" y="591.5" x="681" font-size="11" id="task9-text">Création de la BOM          </text><text class="taskTextOutsideRight taskTextOutside2  critText2 width-126.90625" y="615.5" x="681" font-size="11" id="task10-text">Préparation fichiers prod.  </text><text class="taskText taskText2  width-146.92236328125" y="711.5" x="726" font-size="11" id="task13-text">Rédaction rapport design PCB    </text><text class="taskTextOutsideRight taskTextOutside3  width-58.671875" y="759.5" x="681" font-size="11" id="task15-text">Design code              </text><text class="taskTextOutsideRight taskTextOutside1  critText1 milestoneText width-93.1416015625" y="495.5" x="691" font-size="11" id="task6-text">Commande du PCB             </text><text class="taskTextOutsideRight taskTextOutside2  critText2 milestoneText width-53.40087890625" y="663.5" x="691" font-size="11" id="task11-text">Fin du PCB                  </text><text class="taskText taskText3  width-82.19970703125" y="783.5" x="901.5" font-size="11" id="task16-text">Code sans debug          </text><text class="taskText taskText2  critText2 width-80.85888671875" y="687.5" x="1177" font-size="11" id="task12-text">Montage du PCB              </text><text class="taskTextOutsideRight taskTextOutside3  milestoneText width-107.90625" y="735.5" x="1142" font-size="11" id="task14-text">Début programmation      </text><text class="taskTextOutsideRight taskTextOutside3  critText3 milestoneText width-72.41455078125" y="807.5" x="1142" font-size="11" id="task17-text">Réception PCB            </text><text class="taskText taskText3  width-116.44482421875" y="831.5" x="1252" font-size="11" id="task18-text">Programmation et Tests   </text><text class="taskTextOutsideRight taskTextOutside0  milestoneText width-116" y="855.5" x="1492" font-size="11" id="task19-text">Début validation design      </text><text class="taskText taskText0  width-83.1396484375" y="879.5" x="1602.5" font-size="11" id="task20-text">Tests et mesures             </text><text class="taskTextOutsideLeft taskTextOutside0  critText0 milestoneText" y="903.5" x="1813" font-size="11" id="task21-text">Rendu projet et doc             </text></g><g><text class="sectionTitle sectionTitle0" font-size="11" y="158" x="10" dy="0em"><tspan x="10" alignment-baseline="central">Pré-étude</tspan></text><text class="sectionTitle sectionTitle1" font-size="11" y="386" x="10" dy="0em"><tspan x="10" alignment-baseline="central">Schéma</tspan></text><text class="sectionTitle sectionTitle2" font-size="11" y="614" x="10" dy="0em"><tspan x="10" alignment-baseline="central">PCB</tspan></text><text class="sectionTitle sectionTitle3" font-size="11" y="782" x="10" dy="0em"><tspan x="10" alignment-baseline="central">Programmation</tspan></text><text class="sectionTitle sectionTitle0" font-size="11" y="878" x="10" dy="0em"><tspan x="10" alignment-baseline="central">Mesures et validations</tspan></text></g><g class="today"><line class="today" y2="939" y1="25" x2="104" x1="104"></line></g><text class="titleText" y="25" x="951.5">Diagramme de Gantt</text></g><defs><style id="svg-pan-zoom-controls-styles" type="text/css">.svg-pan-zoom-control { cursor: pointer; fill: black; fill-opacity: 0.333; } .svg-pan-zoom-control:hover { fill-opacity: 0.8; } .svg-pan-zoom-control-background { fill: white; fill-opacity: 0.5; } .svg-pan-zoom-control-background { fill-opacity: 0.8; }</style></defs><g id="svg-pan-zoom-controls" transform="translate(1046 694) scale(0.75)" class="svg-pan-zoom-control"><g id="svg-pan-zoom-zoom-in" transform="translate(30.5 5) scale(0.015)" class="svg-pan-zoom-control"><rect x="0" y="0" width="1500" height="1400" class="svg-pan-zoom-control-background"></rect><path d="M1280 576v128q0 26 -19 45t-45 19h-320v320q0 26 -19 45t-45 19h-128q-26 0 -45 -19t-19 -45v-320h-320q-26 0 -45 -19t-19 -45v-128q0 -26 19 -45t45 -19h320v-320q0 -26 19 -45t45 -19h128q26 0 45 19t19 45v320h320q26 0 45 19t19 45zM1536 1120v-960 q0 -119 -84.5 -203.5t-203.5 -84.5h-960q-119 0 -203.5 84.5t-84.5 203.5v960q0 119 84.5 203.5t203.5 84.5h960q119 0 203.5 -84.5t84.5 -203.5z" class="svg-pan-zoom-control-element"></path></g><g id="svg-pan-zoom-reset-pan-zoom" transform="translate(5 35) scale(0.4)" class="svg-pan-zoom-control"><rect x="2" y="2" width="182" height="58" class="svg-pan-zoom-control-background"></rect><path d="M33.051,20.632c-0.742-0.406-1.854-0.609-3.338-0.609h-7.969v9.281h7.769c1.543,0,2.701-0.188,3.473-0.562c1.365-0.656,2.048-1.953,2.048-3.891C35.032,22.757,34.372,21.351,33.051,20.632z" class="svg-pan-zoom-control-element"></path><path d="M170.231,0.5H15.847C7.102,0.5,0.5,5.708,0.5,11.84v38.861C0.5,56.833,7.102,61.5,15.847,61.5h154.384c8.745,0,15.269-4.667,15.269-10.798V11.84C185.5,5.708,178.976,0.5,170.231,0.5z M42.837,48.569h-7.969c-0.219-0.766-0.375-1.383-0.469-1.852c-0.188-0.969-0.289-1.961-0.305-2.977l-0.047-3.211c-0.03-2.203-0.41-3.672-1.142-4.406c-0.732-0.734-2.103-1.102-4.113-1.102h-7.05v13.547h-7.055V14.022h16.524c2.361,0.047,4.178,0.344,5.45,0.891c1.272,0.547,2.351,1.352,3.234,2.414c0.731,0.875,1.31,1.844,1.737,2.906s0.64,2.273,0.64,3.633c0,1.641-0.414,3.254-1.242,4.84s-2.195,2.707-4.102,3.363c1.594,0.641,2.723,1.551,3.387,2.73s0.996,2.98,0.996,5.402v2.32c0,1.578,0.063,2.648,0.19,3.211c0.19,0.891,0.635,1.547,1.333,1.969V48.569z M75.579,48.569h-26.18V14.022h25.336v6.117H56.454v7.336h16.781v6H56.454v8.883h19.125V48.569z M104.497,46.331c-2.44,2.086-5.887,3.129-10.34,3.129c-4.548,0-8.125-1.027-10.731-3.082s-3.909-4.879-3.909-8.473h6.891c0.224,1.578,0.662,2.758,1.316,3.539c1.196,1.422,3.246,2.133,6.15,2.133c1.739,0,3.151-0.188,4.236-0.562c2.058-0.719,3.087-2.055,3.087-4.008c0-1.141-0.504-2.023-1.512-2.648c-1.008-0.609-2.607-1.148-4.796-1.617l-3.74-0.82c-3.676-0.812-6.201-1.695-7.576-2.648c-2.328-1.594-3.492-4.086-3.492-7.477c0-3.094,1.139-5.664,3.417-7.711s5.623-3.07,10.036-3.07c3.685,0,6.829,0.965,9.431,2.895c2.602,1.93,3.966,4.73,4.093,8.402h-6.938c-0.128-2.078-1.057-3.555-2.787-4.43c-1.154-0.578-2.587-0.867-4.301-0.867c-1.907,0-3.428,0.375-4.565,1.125c-1.138,0.75-1.706,1.797-1.706,3.141c0,1.234,0.561,2.156,1.682,2.766c0.721,0.406,2.25,0.883,4.589,1.43l6.063,1.43c2.657,0.625,4.648,1.461,5.975,2.508c2.059,1.625,3.089,3.977,3.089,7.055C108.157,41.624,106.937,44.245,104.497,46.331z M139.61,48.569h-26.18V14.022h25.336v6.117h-18.281v7.336h16.781v6h-16.781v8.883h19.125V48.569z M170.337,20.14h-10.336v28.43h-7.266V20.14h-10.383v-6.117h27.984V20.14z" class="svg-pan-zoom-control-element"></path></g><g id="svg-pan-zoom-zoom-out" transform="translate(30.5 70) scale(0.015)" class="svg-pan-zoom-control"><rect x="0" y="0" width="1500" height="1400" class="svg-pan-zoom-control-background"></rect><path d="M1280 576v128q0 26 -19 45t-45 19h-896q-26 0 -45 -19t-19 -45v-128q0 -26 19 -45t45 -19h896q26 0 45 19t19 45zM1536 1120v-960q0 -119 -84.5 -203.5t-203.5 -84.5h-960q-119 0 -203.5 84.5t-84.5 203.5v960q0 119 84.5 203.5t203.5 84.5h960q119 0 203.5 -84.5 t84.5 -203.5z" class="svg-pan-zoom-control-element"></path></g></g></svg>