<?xml version="1.0" encoding="UTF-8" standalone="no"?>
<!-- Created with Inkscape (http://www.inkscape.org/) -->

<svg
   xmlns:dc="http://purl.org/dc/elements/1.1/"
   xmlns:cc="http://creativecommons.org/ns#"
   xmlns:rdf="http://www.w3.org/1999/02/22-rdf-syntax-ns#"
   xmlns:svg="http://www.w3.org/2000/svg"
   xmlns="http://www.w3.org/2000/svg"
   xmlns:sodipodi="http://sodipodi.sourceforge.net/DTD/sodipodi-0.dtd"
   xmlns:inkscape="http://www.inkscape.org/namespaces/inkscape"
   width="93.829063mm"
   height="64.235321mm"
   viewBox="0 0 93.829063 64.235321"
   version="1.1"
   id="svg8"
   inkscape:version="0.92.3 (2405546, 2018-03-11)"
   sodipodi:docname="Icon.svg">
  <defs
     id="defs2">
    <inkscape:perspective
       sodipodi:type="inkscape:persp3d"
       inkscape:vp_x="0 : 148.5 : 1"
       inkscape:vp_y="0 : 1000 : 0"
       inkscape:vp_z="210.00001 : 148.5 : 1"
       inkscape:persp3d-origin="105.00001 : 99 : 1"
       id="perspective831" />
  </defs>
  <sodipodi:namedview
     id="base"
     pagecolor="#ffffff"
     bordercolor="#666666"
     borderopacity="1.0"
     inkscape:pageopacity="0.0"
     inkscape:pageshadow="2"
     inkscape:zoom="1.4"
     inkscape:cx="248.90989"
     inkscape:cy="111.96705"
     inkscape:document-units="mm"
     inkscape:current-layer="layer1"
     showgrid="false"
     inkscape:window-width="1920"
     inkscape:window-height="1009"
     inkscape:window-x="-8"
     inkscape:window-y="-8"
     inkscape:window-maximized="1" />
  <metadata
     id="metadata5">
    <rdf:RDF>
      <cc:Work
         rdf:about="">
        <dc:format>image/svg+xml</dc:format>
        <dc:type
           rdf:resource="http://purl.org/dc/dcmitype/StillImage" />
        <dc:title></dc:title>
      </cc:Work>
    </rdf:RDF>
  </metadata>
  <g
     inkscape:label="Layer 1"
     inkscape:groupmode="layer"
     id="layer1"
     transform="translate(-57.068174,-24.561715)">
    <rect
       style="fill:#00000b;fill-opacity:1;stroke-width:0.26458332"
       id="rect869"
       width="41.961315"
       height="46.504898"
       x="81.517204"
       y="42.292141" />
    <path
       style="fill:#00000b;fill-opacity:1;stroke-width:0.26458332"
       id="path878"
       d="m 116.78988,37.554955 c 1.65309,-0.380272 3.32687,-0.656341 4.98547,-1.014007 1.29085,-0.287195 2.58306,-0.57652 3.8992,-0.718656 0.72869,0.0026 1.33366,0.456991 1.87545,0.899906 0.67008,0.461613 1.38708,0.852125 1.96374,1.43347 0.43651,0.409271 0.82062,0.866939 1.20152,1.327184 0.49455,0.545224 0.89891,1.149483 1.26637,1.785697 0.51256,0.90538 0.85036,1.886085 1.05629,2.90199 0.1555,0.948684 0.1971,1.911148 0.22175,2.870697 0.007,0.451874 0.004,0.230352 0.008,0.664565 0,0 -3.52533,1.79633 -3.52533,1.79633 v 0 c 0.003,-0.433912 0.002,-0.212611 0.004,-0.663898 -0.004,-0.941774 -0.0211,-1.887106 -0.16709,-2.819569 -0.18615,-0.975784 -0.50316,-1.91865 -1.00334,-2.781927 -0.36095,-0.61526 -0.78187,-1.182794 -1.25795,-1.713881 -0.37447,-0.446543 -0.74503,-0.898139 -1.16819,-1.300239 -0.58247,-0.550299 -1.28704,-0.932511 -1.9342,-1.399162 -0.51239,-0.376711 -1.03891,-0.730382 -1.70357,-0.64824 -1.27772,0.150879 -2.53711,0.415769 -3.79392,0.68707 -1.69478,0.357444 -3.40325,0.652846 -5.08016,1.09015 0,0 3.15251,-2.39748 3.15251,-2.39748 z"
       inkscape:connector-curvature="0" />
    <path
       style="fill:#00000b;fill-opacity:1;stroke-width:0.26458332"
       id="path880"
       d="m 118.71692,31.240383 c 1.30052,0.02439 2.60144,0.01942 3.90214,0.01828 1.21141,5.29e-4 2.42278,-0.0028 3.63416,-0.01098 0.74396,-0.0075 1.48796,-0.0048 2.23194,-0.0052 0.76155,0.0027 1.5231,-2.17e-4 2.28464,7.94e-4 0.81923,-0.04159 1.59385,0.257235 2.33574,0.570759 0.74958,0.317256 1.39454,0.815477 2.05332,1.282544 0.60102,0.468574 1.18234,0.942967 1.70094,1.502576 0.64293,0.71813 1.04285,1.583333 1.41688,2.459104 0.25305,0.783997 0.60689,1.526688 0.95583,2.270688 0.31039,0.762373 0.60801,1.523752 0.78832,2.328556 0.14221,0.81625 0.16874,1.646999 0.18805,2.473624 0,0 -3.51782,1.798852 -3.51782,1.798852 v 0 c -0.005,-0.8044 -0.0138,-1.6129 -0.14401,-2.408751 -0.16089,-0.782354 -0.44522,-1.514345 -0.75455,-2.248141 -0.3404,-0.752795 -0.6957,-1.500468 -0.94515,-2.290358 -0.35246,-0.835313 -0.72563,-1.663517 -1.35361,-2.335553 -0.50835,-0.534779 -1.09286,-0.970873 -1.66573,-1.433727 -0.63114,-0.45711 -1.26829,-0.920546 -1.99956,-1.205825 -0.72674,-0.280387 -1.46132,-0.504974 -2.25151,-0.444601 -0.76233,0.0011 -1.52466,-0.0019 -2.28699,7.94e-4 -0.73917,-5.29e-4 -1.47834,0.0024 -2.21749,-0.0052 -1.20131,-0.0082 -2.4026,-0.01151 -3.60393,-0.01098 -1.31749,-0.0011 -2.63516,-0.0057 -3.95248,0.01828 0,0 3.20087,-2.325569 3.20087,-2.325569 z"
       inkscape:connector-curvature="0" />
    <path
       style="fill:#00000b;fill-opacity:1;stroke-width:0.26458332"
       id="path882"
       d="m 121.98384,24.561735 c 2.68466,0.0593 5.37045,0.06034 8.05568,0.06824 3.07752,0.05579 6.15705,-0.07651 9.23385,0.0014 0.8351,0.04961 1.67511,0.03851 2.50541,0.155068 0.59762,0.0839 1.19043,0.228197 1.78499,0.33249 0.99817,0.124151 1.98197,0.310971 2.90213,0.724172 0.76852,0.299772 1.41093,0.770166 1.9767,1.360386 0.84062,0.940067 1.28706,2.130522 1.72153,3.293972 0.46161,1.154644 0.60088,2.385266 0.67881,3.615089 0.031,0.753632 0.0438,1.507808 0.0543,2.261945 0,0 -3.50067,1.785207 -3.50067,1.785207 v 0 c 0.005,-0.75065 0.009,-1.501699 -0.0264,-2.251795 -0.0655,-1.194268 -0.18442,-2.390867 -0.61391,-3.518453 -0.41212,-1.114324 -0.83884,-2.252546 -1.67144,-3.130505 -0.55022,-0.53617 -1.17836,-0.947499 -1.89631,-1.231254 -0.90563,-0.366022 -1.8685,-0.521674 -2.83119,-0.665372 -1.38821,-0.256524 -2.772,-0.500001 -4.19214,-0.486952 -3.04164,-0.105622 -6.0874,-0.04684 -9.13024,-0.06251 -2.74785,0.008 -5.49621,0.01005 -8.24352,0.06824 0,0 3.19236,-2.319388 3.19236,-2.319388 z"
       inkscape:connector-curvature="0" />
    <path
       style="fill:#00000b;fill-opacity:1;stroke-width:0.26458332"
       id="path890"
       d="m 65.7452,68.307555 c -0.702159,-0.695711 -1.36227,-1.431732 -2.04915,-2.141731 -0.451017,-0.514932 -0.924396,-1.02599 -1.274625,-1.617122 -0.300656,-0.460936 -0.440176,-0.980557 -0.520763,-1.518018 -0.06716,-0.589436 -0.05759,-1.184241 -0.05939,-1.776561 -0.02588,-0.647798 0.02011,-1.28751 0.112345,-1.927921 0.115702,-0.670284 0.110657,-1.351862 0.171548,-2.027081 0.09737,-0.522049 0.140457,-1.055785 0.296413,-1.564486 0.20932,-0.484603 0.493815,-0.932122 0.749591,-1.392981 0.335761,-0.495882 0.670832,-0.991624 0.99264,-1.497211 0.359547,-0.585941 0.911471,-0.963978 1.471353,-1.336755 1.663417,-1.41257 3.37035,-1.942182 5.204761,-2.751952 0.607584,-0.301302 1.29081,-0.292243 1.936824,-0.439251 0.568532,-0.14057 1.150599,-0.196781 1.733863,-0.226213 0.603575,-0.04506 1.194279,-0.01283 1.789615,0.08399 0.653029,0.07326 1.233699,0.41679 1.789517,0.746175 0.487998,0.291704 0.994193,0.543653 1.502116,0.797195 0.07399,0.04404 0.147982,0.08808 0.221973,0.132115 0,0 -3.326882,2.162254 -3.326882,2.162254 v 0 c -0.07114,-0.03904 -0.142285,-0.07808 -0.213429,-0.117118 -0.502991,-0.268057 -1.013732,-0.519927 -1.499877,-0.818808 -0.539504,-0.296027 -1.081948,-0.578729 -1.708352,-0.621083 -0.580561,-0.07146 -1.163327,-0.05254 -1.746247,-0.01342 -0.572103,0.04737 -1.137573,0.136538 -1.698284,0.260554 -0.646406,0.101896 -1.289602,0.208272 -1.883349,0.502142 -1.462804,0.585415 -4.402029,2.153859 1.583386,-1.124423 -0.560319,0.321704 -1.132477,0.662895 -1.527164,1.183608 -0.355291,0.473469 -0.602533,1.024035 -1.003652,1.464775 -0.261229,0.445212 -0.502851,0.90165 -0.762699,1.347084 -0.258119,0.448778 -0.213518,0.981858 -0.3513,1.473518 -0.121378,0.669239 -0.05388,1.360217 -0.169339,2.03265 -0.09596,0.624266 -0.183004,1.24074 -0.138409,1.87529 -0.0011,0.575466 -0.0053,1.152134 0.0421,1.726116 0.05776,0.490693 0.166016,0.963175 0.445881,1.380654 0.325713,0.568573 0.774444,1.060047 1.194919,1.558856 0.663353,0.715613 1.319758,1.44087 2.058406,2.081289 0,0 -3.364339,2.103861 -3.364339,2.103861 z"
       inkscape:connector-curvature="0" />
    <path
       style="fill:#00000b;fill-opacity:1;stroke-width:0.26458332"
       id="path892"
       d="m 71.603287,60.233893 c 0.480012,0.779031 1.051975,1.492459 1.593556,2.227595 0.418333,0.434846 0.696135,0.960689 0.966296,1.49261 0.158736,0.426564 0.446246,0.785845 0.674772,1.176015 0.334568,0.487521 0.61867,0.986528 0.795276,1.552247 0.143751,0.538694 0.159991,1.097716 0.171001,1.65169 0.02363,0.573943 0.0033,1.139622 -0.129786,1.699213 -0.237242,0.708557 -0.750187,1.271421 -1.177325,1.870271 -0.445889,0.570579 -0.843335,1.171225 -1.231003,1.781741 -0.284535,0.452673 -0.632531,0.86478 -1.012015,1.240343 -0.4015,0.341778 -0.806011,0.679828 -1.222166,1.004048 -1.482574,1.243698 -3.313105,1.976091 -4.97626,2.94616 7.188587,-4.131805 0.860335,-0.484741 -0.572817,0.294753 -0.108508,0.05902 -0.239266,0.06438 -0.35319,0.112112 -0.342125,0.143328 -0.664588,0.336259 -1.009107,0.479526 -0.661694,0.172312 -1.303478,0.39148 -1.98314,0.48478 -0.595841,0.139972 -1.135054,0.448238 -1.715431,0.637482 -0.610709,0.444119 -1.364835,0.522282 -2.058578,0.755536 -0.42269,0.127791 -0.858141,0.195633 -1.295196,0.249253 0,0 3.168634,-2.372698 3.168634,-2.372698 v 0 c 0.424157,-0.07152 0.845,-0.159581 1.254914,-0.292476 0.7127,-0.190643 1.393068,-0.435406 2.048803,-0.77755 0.569916,-0.233598 1.141831,-0.482822 1.754688,-0.577569 0.652542,-0.137134 1.298723,-0.324893 1.922888,-0.558186 0.340408,-0.155858 0.677276,-0.315064 1.022364,-0.460434 0.111305,-0.04689 0.437171,-0.203364 0.333824,-0.140864 -0.415189,0.251085 -8.677126,5.063353 0.563806,-0.322027 0.261848,-0.139266 0.521581,-0.282292 0.783611,-0.421214 -5.695841,3.354777 -3.601092,2.267202 -2.566574,1.438259 0.405752,-0.331173 0.813803,-0.659693 1.22946,-0.973592 0.392967,-0.34575 0.740979,-0.726049 1.057312,-1.143349 0.373939,-0.632082 0.784485,-1.239663 1.242119,-1.815328 0.407416,-0.579408 0.865282,-1.120902 1.207936,-1.741977 0.189225,-0.516345 0.206034,-1.045141 0.182018,-1.590963 -0.0048,-0.520396 -0.0066,-1.045877 -0.119296,-1.556605 -0.15063,-0.54288 -0.429342,-1.005948 -0.750689,-1.465916 -0.235238,-0.396494 -0.538609,-0.758907 -0.692401,-1.197848 -0.252603,-0.51631 -0.512223,-1.023493 -0.904563,-1.452382 -0.541523,-0.753798 -1.106911,-1.490689 -1.639864,-2.250848 0,0 3.436123,-1.981808 3.436123,-1.981808 z"
       inkscape:connector-curvature="0" />
    <path
       style="fill:#ffffff;fill-opacity:1;stroke-width:0.26458332"
       id="path900"
       d="m 87.317629,57.4148 c 0.01712,-0.58973 0.0094,-1.179828 0.01074,-1.76973 -5.29e-4,-0.526182 -0.003,-1.052367 -0.0061,-1.578538 -0.04995,-0.50777 0.11871,-0.98366 0.235439,-1.469255 0.08674,-0.371181 0.187516,-0.737378 0.309859,-1.098177 0.07736,-0.282038 0.1699,-0.558072 0.304681,-0.817941 0.126672,-0.203565 0.294378,-0.385863 0.503341,-0.507762 1.773814,-1.034767 1.218337,-0.782738 2.045091,-1.146143 0.06905,-0.02267 0.139851,-0.04057 0.207143,-0.06802 0.134844,-0.055 0.259556,-0.132882 0.394245,-0.188267 0.190653,-0.0784 0.39184,-0.128244 0.585869,-0.197493 0.301567,-0.11226 0.618175,-0.156541 0.937321,-0.176522 0.296421,-0.01217 0.593236,-0.0077 0.889833,-0.0071 0.342747,0.01881 0.611672,0.171524 0.872266,0.383103 0.225298,0.210823 0.301823,0.49008 0.341008,0.785212 0.02495,0.275294 0.0208,0.552231 0.01707,0.828318 0.02103,0.345072 -0.02339,0.656169 -0.191703,0.959149 -0.566635,0.803323 -1.493901,1.373095 -2.443652,1.608521 -0.345284,0.188778 -0.738979,0.227036 -1.109877,0.33355 -0.311063,0.09281 -0.636289,0.119605 -0.958916,0.136763 0.0641,-0.130609 -0.260022,0.133559 -0.196705,0.09701 0.557739,-0.321969 1.114946,-0.645191 1.66306,-0.983289 0.01077,-0.0066 -0.02199,-0.03521 -0.0094,-0.03672 0.06548,-0.0079 0.117525,0.06003 0.174546,0.09317 0.347252,0.111901 0.688054,0.242113 1.027223,0.378267 0.41537,0.163804 0.798412,0.393028 1.147588,0.669475 0.280977,0.229582 0.466249,0.477396 0.559734,0.827958 0.07473,0.380609 0.06589,0.770898 0.06768,1.156957 -0.0021,0.406612 -0.104437,0.793001 -0.253331,1.167821 -0.1383,0.294163 -0.28244,0.588359 -0.477824,0.849235 -0.658294,0.720366 -1.54105,1.282311 -2.47037,1.568244 -0.374258,0.09373 -0.763339,0.09572 -1.146879,0.100105 -0.377134,0.0019 -0.754284,-10e-5 -1.131424,-5.29e-4 -0.163888,0.0181 -0.311126,-0.02461 -0.463894,-0.07552 0,0 1.6319,-1.121535 1.6319,-1.121535 v 0 c 0.143415,0.02789 0.285408,0.04391 0.43222,0.03551 0.374537,0.0029 0.749121,0.007 1.123638,-1.03e-4 0.373497,-0.01185 0.75506,-0.02135 1.107935,-0.158546 0.678921,-0.334884 0.308957,-0.156978 -1.387957,0.827151 -0.04803,0.02786 0.09657,-0.05562 0.140126,-0.09006 0.08405,-0.06647 0.161775,-0.140557 0.2422,-0.211362 0.03474,-0.03058 0.06536,-0.06555 0.09804,-0.09833 0.21975,-0.235278 0.359344,-0.517659 0.51254,-0.798433 0.14994,-0.353554 0.272616,-0.709514 0.287499,-1.098581 2.7e-5,-0.370417 0.0051,-0.743884 -0.05193,-1.110864 -0.07598,-0.326358 -0.23414,-0.503039 -0.487794,-0.718764 -0.339661,-0.261758 -0.713287,-0.473311 -1.116713,-0.621602 -0.350777,-0.134787 -0.708163,-0.253378 -1.054053,-0.398092 -1.075586,-0.642443 0.74449,-1.337038 1.62632,-1.423051 0.31591,-0.0259 0.628896,-0.07241 0.933556,-0.162907 0.377089,-0.08455 0.745789,-0.189478 1.10036,-0.346244 0.692745,-0.310999 0.320055,-0.150651 -1.389941,0.841529 -0.04419,0.02564 0.08603,-0.05544 0.125865,-0.08742 0.127814,-0.102595 0.243199,-0.224886 0.33765,-0.358445 0.21096,-0.252566 0.262144,-0.526796 0.238099,-0.852228 -2.65e-4,-0.268589 0.0067,-0.537506 -0.0089,-0.805807 -0.02289,-0.244917 -0.06343,-0.480594 -0.259437,-0.650446 -0.241533,-0.179449 -0.492313,-0.283311 -0.798883,-0.274937 -0.293907,-2.64e-4 -0.588378,-0.0021 -0.881517,0.02228 -0.308253,0.03354 -0.609756,0.0999 -0.900541,0.209891 -0.400966,0.133382 -0.784654,0.303692 -1.173301,0.468998 -0.710922,0.351089 -0.226041,0.116925 1.336025,-0.796512 0.05428,-0.03174 -0.110101,0.06088 -0.163444,0.09417 -0.102733,0.06411 -0.185079,0.12242 -0.270134,0.209137 -0.03616,0.03686 -0.06623,0.07924 -0.09934,0.118864 -0.163285,0.232161 -0.250037,0.502907 -0.320008,0.776189 -0.116621,0.362657 -0.256022,0.716532 -0.338201,1.090462 -0.102516,0.486246 -0.295855,0.92166 -0.247539,1.426657 -0.003,0.528246 -0.0057,1.0565 -0.0061,1.584751 0.0013,0.586251 -0.0065,1.172702 0.01074,1.758773 0,0 -1.762627,0.898104 -1.762627,0.898104 z"
       inkscape:connector-curvature="0" />
    <path
       style="fill:#ffffff;fill-opacity:1;stroke-width:0.26458332"
       id="path902"
       d="m 95.334544,60.104077 c 0.0049,-0.646305 0.05507,-1.290817 0.09194,-1.935808 0.02679,-0.622339 0.08173,-1.242689 0.213112,-1.851892 0.110048,-0.469779 0.221615,-0.939427 0.341085,-1.406951 0.117427,-0.395169 0.266861,-0.777664 0.350811,-1.18214 0.0716,-0.367242 0.184621,-0.7243 0.293269,-1.081797 0.09017,-0.311467 0.12863,-0.629795 0.263898,-0.926332 0.147683,-0.27771 0.320821,-0.537737 0.527585,-0.774523 0.760939,-0.578644 1.650142,-1.112647 2.585516,-1.392693 0.37034,-0.09071 0.74406,-0.08319 1.11951,-0.04262 0.35255,0.0099 0.64083,0.179734 0.91922,0.377883 0.23793,0.211955 0.37679,0.501091 0.45424,0.805151 0.0671,0.325659 0.0787,0.658696 0.0855,0.990028 0.003,0.276085 0.001,0.552201 5.3e-4,0.828294 -0.0128,0.238263 -0.0709,0.518343 -0.29443,0.652801 -0.60244,0.362397 -1.21441,0.708697 -1.82162,1.063046 -0.30044,0.165978 -0.643479,0.191929 -0.967234,0.280908 -0.314042,0.07377 -0.635169,0.103547 -0.956567,0.11974 0.05108,-0.119216 -0.480981,0.138763 -0.364895,0.06852 1.306203,-0.790395 1.165159,-1.305012 1.908386,-0.910362 0.38595,0.123349 0.75885,0.278328 1.12269,0.457165 0.36206,0.185756 0.72081,0.374468 1.01808,0.655326 0.25152,0.298929 0.3606,0.657108 0.42934,1.033878 0.053,0.355219 0.0566,0.715449 0.0604,1.073888 0.002,0.283588 -5e-5,0.567184 -8e-4,0.850775 -0.005,0.248658 -0.0722,0.471271 -0.24646,0.65037 -0.72543,0.632428 -1.5333,1.132626 -2.469375,1.199856 -0.308113,0.01061 -0.616463,0.0092 -0.924708,0.0084 -0.190498,-5.3e-4 -0.09576,-2.65e-4 -0.284213,-7.94e-4 0,0 1.603486,-1.164029 1.603486,-1.164029 v 0 c 0.18781,7.94e-4 0.0934,5.29e-4 0.28314,0.0013 0.30456,5.29e-4 0.61016,0.0043 0.91351,-0.02677 0.13162,-0.01878 0.2607,-0.03875 0.38613,-0.08523 0.0408,-0.01514 0.15724,-0.07432 0.11981,-0.05206 -1.40408,0.835072 -2.139772,1.20174 -1.46739,0.86396 0.0588,-0.04023 0.13079,-0.06439 0.179,-0.116872 0.0911,-0.09922 0.11033,-0.25449 0.1405,-0.378595 10e-4,-0.283782 0.003,-0.567552 0.005,-0.851331 8e-4,-0.349308 0.002,-0.699916 -0.0411,-1.04716 -0.0531,-0.336069 -0.13829,-0.657625 -0.36893,-0.919671 -0.28673,-0.260905 -0.632989,-0.438867 -0.978615,-0.61006 -0.371329,-0.173577 -0.755263,-0.310444 -1.13566,-0.461023 -0.0046,-0.0026 -0.335976,-0.175948 -0.298998,-0.208521 1.076817,-0.948531 1.106776,-1.167678 2.006283,-1.204849 0.31508,-0.0241 0.62866,-0.06553 0.93474,-0.146733 0.32466,-0.06897 0.64732,-0.148177 0.93364,-0.324604 -0.51925,0.304348 -1.03791,0.60969 -1.55773,0.913038 -0.0416,0.02429 0.0821,-0.05064 0.12314,-0.07588 0.15818,-0.09717 0.22814,-0.220472 0.24466,-0.408879 0.001,-0.275437 0.003,-0.550873 0.003,-0.826312 -0.002,-0.317963 -0.005,-0.637837 -0.0621,-0.951744 -0.0603,-0.258677 -0.17259,-0.50886 -0.38438,-0.679119 -0.26412,-0.175106 -0.531082,-0.295428 -0.856038,-0.298212 -0.36277,-0.02588 -0.72734,-0.0052 -1.07505,0.110765 -0.15576,0.05732 -0.310234,0.118052 -0.460994,0.187746 -0.05061,0.02339 -0.197985,0.102383 -0.150045,0.07392 1.32479,-0.786689 2.094664,-1.196274 1.418672,-0.834824 -0.243253,0.186399 -0.396634,0.457189 -0.550151,0.718481 -0.183901,0.269095 -0.206428,0.582708 -0.289266,0.891421 -0.106995,0.353063 -0.216723,0.704249 -0.301884,1.063271 -0.07411,0.411562 -0.208884,0.800909 -0.347364,1.194667 -0.125111,0.467257 -0.240517,0.936829 -0.35455,1.406925 -0.146716,0.599252 -0.209303,1.210151 -0.235505,1.826622 -0.03943,0.636199 -0.102796,1.273167 -0.06905,1.911123 0,0 -1.764969,0.899297 -1.764969,0.899297 z"
       inkscape:connector-curvature="0" />
    <path
       style="fill:#ffffff;fill-opacity:1;stroke-width:0.26458332"
       id="path912"
       d="m 112.78989,59.789244 c -0.34852,-0.520279 -0.64053,-1.072631 -0.92035,-1.631677 -0.24299,-0.549984 -0.51102,-1.088506 -0.75607,-1.637554 -0.2099,-0.493146 -0.41044,-0.991457 -0.65492,-1.468731 -0.19907,-0.317606 -0.36739,-0.652777 -0.5596,-0.973971 -0.15422,-0.263866 -0.27426,-0.547923 -0.45273,-0.796745 -0.18013,-0.326398 -0.36925,-0.64747 -0.55069,-0.973333 -0.13811,-0.287901 -0.31943,-0.551725 -0.45139,-0.842619 -0.0563,-0.121854 -0.10717,-0.244409 -0.17106,-0.362482 0,0 1.72089,-0.986033 1.72089,-0.986033 v 0 c 0.065,0.123087 0.11824,0.249658 0.1768,0.375925 0.12431,0.287454 0.30426,0.546026 0.43453,0.8309 0.18022,0.318871 0.36247,0.636503 0.5463,0.95313 0.17588,0.256739 0.3085,0.539372 0.46175,0.809882 0.18885,0.328067 0.35294,0.669803 0.54953,0.993775 0.24192,0.483126 0.44794,0.98208 0.66177,1.477917 0.23392,0.550656 0.49772,1.088335 0.73842,1.635887 0.27326,0.549781 0.55757,1.10027 0.93355,1.588228 0,0 -1.70673,1.007501 -1.70673,1.007501 z"
       inkscape:connector-curvature="0" />
    <path
       style="fill:#ffffff;fill-opacity:1;stroke-width:0.26458332"
       id="path914"
       d="m 115.93266,51.201632 c -0.13194,0.800142 -0.53597,1.515366 -0.93975,2.205982 -0.59211,0.958085 -1.39567,1.741876 -2.2597,2.451428 -0.92564,0.657074 -1.89079,1.255868 -2.82499,1.901248 -0.5877,0.415904 -1.15363,0.859435 -1.71037,1.315379 -0.37023,0.309546 -0.723,0.638897 -1.08092,0.962382 -0.34671,0.324826 -0.72277,0.615542 -1.06932,0.940443 -0.049,0.05367 -0.098,0.107333 -0.14704,0.160999 0,0 -1.81227,0.767016 -1.81227,0.767016 v 0 c 0.0476,-0.05909 0.0953,-0.118189 0.14293,-0.177287 0.33129,-0.342315 0.71575,-0.62335 1.06398,-0.947271 0.36159,-0.327272 0.72091,-0.655948 1.0876,-0.977205 0.57262,-0.45357 1.13328,-0.92149 1.73343,-1.339855 0.93684,-0.647557 1.89857,-1.256731 2.84281,-1.892773 0.86572,-0.689401 1.67788,-1.447663 2.28091,-2.38582 0.38879,-0.655748 0.79985,-1.340482 0.91447,-2.106295 0,0 1.77823,-0.878371 1.77823,-0.878371 z"
       inkscape:connector-curvature="0" />
    <path
       style="fill:#ffffff;fill-opacity:1;stroke-width:0.26458332"
       id="path916"
       d="m 85.117865,80.897507 c 0.573336,-0.961359 0.977045,-2.01158 1.428557,-3.032969 0.467132,-1.054505 0.935193,-2.108393 1.410821,-3.159088 0.311338,-0.681982 0.659284,-1.34593 1.021475,-2.001936 0.226134,-0.355576 0.437898,-0.718425 0.625816,-1.095769 0.129048,-0.314481 0.275976,-0.620802 0.415959,-0.930441 0.360315,-0.749298 1.605931,-1.655742 2.080245,-0.832983 0.07753,0.134498 0.127814,0.322199 0.173855,0.466236 0.269507,0.701196 0.391043,1.445963 0.533831,2.180135 0.118359,0.746635 0.325877,1.474988 0.510675,2.20699 0.14379,0.622517 0.35927,1.224348 0.535397,1.837372 0.105892,0.4201 0.244036,0.832054 0.3839,1.242036 0.08638,0.302027 0.184648,0.601213 0.252889,0.908093 0.03252,0.200567 0.07601,0.399071 0.114292,0.598564 0,0 -1.745895,0.930764 -1.745895,0.930764 v 0 c -0.03636,-0.198323 -0.08611,-0.393866 -0.114933,-0.593352 -0.05963,-0.302225 -0.158972,-0.593979 -0.234418,-0.892315 -0.135422,-0.415597 -0.279389,-0.830696 -0.380074,-1.2558 -0.164481,-0.618929 -0.368877,-1.226957 -0.523489,-1.848821 -0.186052,-0.735999 -0.38378,-1.47135 -0.507216,-2.220944 -0.14159,-0.724061 -0.257879,-1.461569 -0.543719,-2.146496 -0.02865,-0.08317 -0.09547,-0.301408 -0.151919,-0.390742 -0.02127,-0.03366 -0.04911,-0.06454 -0.08226,-0.0866 -0.01736,-0.01156 -0.0795,0.0019 -0.06187,-0.0093 1.759886,-1.111607 2.048483,-1.452006 1.566389,-0.908301 -0.168331,0.294891 -0.291441,0.619728 -0.427228,0.930672 -0.17966,0.387234 -0.380963,0.765688 -0.63178,1.111874 -0.372547,0.65685 -0.742715,1.315263 -1.059527,2.001655 -0.485516,1.054643 -0.969354,2.109714 -1.441415,3.170518 -0.445964,1.009798 -0.851961,2.03717 -1.337967,3.028836 0,0 -1.810395,0.79211 -1.810395,0.79211 z"
       inkscape:connector-curvature="0" />
    <path
       style="fill:#ffffff;fill-opacity:1;stroke-width:0.26458332"
       id="path918"
       d="m 89.53719,76.079391 c 0.62312,0.102148 1.24978,0.166079 1.879832,0.206664 0.527648,-0.02574 1.027983,0.102325 1.536378,0.217522 0,0 -1.624166,1.123211 -1.624166,1.123211 v 0 c -0.491549,-0.121763 -0.981917,-0.214479 -1.491925,-0.209412 -0.641773,-0.04646 -1.279943,-0.119446 -1.919044,-0.192251 0,0 1.618925,-1.145734 1.618925,-1.145734 z"
       inkscape:connector-curvature="0" />
    <path
       style="fill:#ffffff;fill-opacity:1;stroke-width:0.26458332"
       id="path920"
       d="m 96.345443,72.044295 c 0.70358,0.113805 1.391237,0.321233 2.082919,0.493913 0.768582,0.188719 1.523629,0.426281 2.284148,0.6438 0.43349,0.154416 0.90566,0.119933 1.33639,0.273116 0.0396,0.02927 0.0891,0.04847 0.11871,0.08781 0.24791,0.329536 -0.17001,0.723 -0.35656,0.95132 -0.77667,0.879626 -1.54686,1.764477 -2.290981,2.671897 -0.758835,0.919189 -1.460095,1.876571 -2.089226,2.888382 -0.292524,0.47498 -0.54791,0.972027 -0.801182,1.468798 -0.02135,0.05656 -0.08384,0.179824 -0.0592,0.252769 0.05646,0.167183 0.733163,0.221118 0.856015,0.237342 0.873572,0.07981 1.752216,0.07647 2.628634,0.07331 0.59286,-0.0314 1.19139,-0.05149 1.76419,-0.219509 0.0532,-0.02683 0.1063,-0.05366 0.15946,-0.08049 0,0 -1.55165,1.222005 -1.55165,1.222005 v 0 c -0.0574,0.01833 -0.11485,0.0367 -0.17228,0.05505 -0.581391,0.122248 -1.175666,0.148106 -1.768386,0.162002 -0.883359,-0.0081 -1.76943,-0.0045 -2.649331,-0.09171 -0.464653,-0.07101 -1.202994,-0.138681 -1.00515,-0.797084 0.09785,-0.201009 0.215297,-0.387429 0.320093,-0.584419 0.165008,-0.310171 0.310023,-0.631857 0.514178,-0.920404 0.648026,-1.018714 1.343356,-2.000395 2.119596,-2.92695 0.725567,-0.896088 1.4702,-1.776047 2.22779,-2.64523 0.0308,-0.03767 0.5221,-0.601951 0.4829,-0.646409 -0.0208,-0.02365 -0.0552,-0.03046 -0.0828,-0.04569 -0.431367,-0.118703 -0.890184,-0.123111 -1.312639,-0.284517 -0.750639,-0.22959 -1.499971,-0.465289 -2.264174,-0.646943 -0.690293,-0.169638 -1.382824,-0.394629 -2.096138,-0.426281 0,0 1.604685,-1.165873 1.604685,-1.165873 z"
       inkscape:connector-curvature="0" />
    <path
       style="fill:#ffffff;fill-opacity:1;stroke-width:0.26458332"
       id="path922"
       d="m 97.577999,77.792135 c 0.332626,0.0071 0.665355,0.0051 0.998027,0.0041 0,0 -1.589249,1.154658 -1.589249,1.154658 v 0 c -0.336402,-0.0011 -0.672854,-0.0029 -1.009211,0.0041 0,0 1.600433,-1.162783 1.600433,-1.162783 z"
       inkscape:connector-curvature="0" />
    <path
       style="fill:#ffffff;fill-opacity:1;stroke-width:0.26458332"
       id="path924"
       d="m 103.53025,82.395712 c 0.33615,-0.712221 0.39152,-1.515128 0.45454,-2.28887 0.0631,-0.997363 0.0625,-1.997149 0.0605,-2.996033 -0.008,-0.58551 -0.0114,-1.171049 -0.0162,-1.756585 -0.003,-0.381328 -0.005,-0.762667 -0.007,-1.144003 0.0104,-0.203697 -0.0531,-0.695311 0.1519,-0.825531 0.60224,-0.382556 1.23089,-0.721871 1.84633,-1.082805 0.50992,-0.120105 1.03981,-0.115372 1.56089,-0.123666 0.42711,-0.01064 0.85965,-0.01955 1.25304,0.164634 0.27892,0.150712 0.50292,0.360296 0.70126,0.604581 0.20776,0.274397 0.36214,0.572966 0.45498,0.903618 0.0846,0.344972 0.0888,0.67899 -0.0575,1.004276 -0.49283,0.88618 -1.44511,1.158185 -2.32718,1.673376 -0.4041,0.133049 -0.83364,0.139544 -1.25492,0.148614 -0.43965,0.02524 -0.8839,-0.02535 -1.32116,0.0299 -0.6921,0.09871 -1.62828,0.780253 1.30577,-0.821511 0.018,-0.0098 -0.0439,0.02117 -0.0452,0.04161 -0.003,0.03892 0.0156,0.07788 0.0352,0.111601 0.0382,0.06563 0.0906,0.121809 0.13598,0.182714 0.69989,0.6644 1.55733,1.134663 2.37099,1.643261 1.13351,0.663022 2.3353,1.198007 3.54835,1.696384 0.49918,0.190179 1.00794,0.352993 1.51006,0.534664 0,0 -1.62215,1.092354 -1.62215,1.092354 v 0 c -0.49216,-0.188918 -0.98786,-0.368557 -1.47625,-0.567299 -1.20895,-0.524515 -2.41664,-1.060545 -3.55636,-1.725694 -0.84623,-0.51186 -1.73482,-0.990669 -2.46107,-1.669926 -0.0336,-0.04245 -0.40936,-0.517271 -0.28295,-0.604475 0.98879,-0.682119 1.26687,-1.010671 2.12503,-1.087141 0.43903,-0.0181 0.87893,0.0036 1.31809,-0.01627 0.41098,-0.02093 0.83818,-0.03337 1.20923,-0.232137 -2.98225,1.752653 -1.42959,1.041257 -1.01556,0.377819 0.0515,-0.07635 0.12556,-0.171595 0.15077,-0.263697 0.0533,-0.194741 -0.009,-0.409977 -0.0299,-0.604258 -0.0747,-0.306747 -0.21384,-0.579887 -0.40883,-0.829302 -0.18641,-0.213428 -0.39106,-0.40446 -0.6523,-0.523581 -0.38228,-0.135356 -0.79121,-0.113691 -1.19133,-0.108908 -0.5078,0.01019 -1.04175,1.59e-4 -1.51572,0.20519 0.50672,-0.303414 1.01396,-0.605967 1.52016,-0.910241 0.043,-0.02588 -0.0948,0.03987 -0.13067,0.07504 -0.0323,0.03165 -0.0527,0.07516 -0.0664,0.118226 -0.05,0.157076 -0.006,0.330439 -0.0201,0.490538 -0.002,0.383183 -0.003,0.766366 -0.005,1.149548 -0.002,0.590609 -0.002,1.181227 -0.0115,1.771791 -0.008,1.004882 -0.0188,2.010084 -0.0669,3.013998 -0.0483,0.784857 -0.10109,1.584478 -0.36637,2.331625 0,0 -1.80489,0.816588 -1.80489,0.816588 z"
       inkscape:connector-curvature="0" />
  </g>
</svg>
